<svg xmlns="http://www.w3.org/2000/svg" fill="#aaa" viewBox="0 0 20 20">
    <path d="M10 0c5.523 0 10 4.477 10 10s-4.477 10-10 10-10-4.477-10-10 4.477-10 10-10zM12.292 13c-1.425 1.591-2.292 3.694-2.292 6 2.305 0 4.408-0.867 6-2.292l-3.708-3.709zM10 10.706l-6 6.001c1.274 1.14 2.875 1.923 4.645 2.19l0.356 0.047 0.003-0.224c0.068-2.472 1.032-4.72 2.58-6.43l-1.584-1.583zM7.709 8.416c-1.762 1.594-4.094 2.57-6.654 2.584 0.211 1.911 1.020 3.642 2.238 5l6-6-1.584-1.584zM19 10l-0.265 0.004c-2.202 0.064-4.205 0.918-5.736 2.288l3.709 3.709c1.354-1.513 2.204-3.487 2.286-5.657l0.006-0.344zM16.708 4l-6.001 6 1.584 1.585c1.697-1.537 3.925-2.498 6.376-2.578l0.278-0.007c-0.21-1.91-1.020-3.64-2.237-5zM3.292 4c-1.354 1.511-2.204 3.485-2.286 5.655l-0.006 0.345 0.265-0.004c2.202-0.064 4.205-0.918 5.736-2.288l-3.709-3.709zM11 1.054l-0.004 0.224c-0.068 2.472-1.032 4.72-2.58 6.43l1.584 1.585 6-6c-1.294-1.16-2.926-1.95-4.73-2.204l-0.27-0.034zM10 1l-0.265 0.004c-2.202 0.064-4.205 0.918-5.736 2.288l3.709 3.709c1.354-1.513 2.204-3.487 2.286-5.657l0.006-0.344z"></path>
</svg>