<svg xmlns="http://www.w3.org/2000/svg" fill="#ff6b00" viewBox="0 0 20 20">
    <path d="M12.293 13l4.417 4.415c-1.774 1.606-4.128 2.585-6.709 2.585h0.055c-0.036-0.329-0.054-0.662-0.054-1 0-2.305 0.866-4.408 2.292-6zM10 10.706l1.585 1.585c-1.606 1.774-2.584 4.127-2.584 6.709 0 0.322 0.015 0.64 0.045 0.955-2.205-0.209-4.202-1.134-5.755-2.54l6.709-6.709zM19 10c0.338 0 0.671 0.019 1 0.055-0.014 2.56-0.989 4.892-2.583 6.653l-4.417-4.416c1.592-1.425 3.695-2.292 6-2.292zM7.711 8.416l1.583 1.583-6.709 6.71c-1.405-1.554-2.33-3.55-2.538-5.754 0.314 0.030 0.633 0.045 0.955 0.045 2.58 0 4.934-0.978 6.708-2.584zM17.418 3.292c1.405 1.553 2.33 3.548 2.538 5.753-0.315-0.030-0.634-0.045-0.955-0.045-2.582 0-4.935 0.978-6.71 2.584l-1.583-1.584zM2.585 3.292l4.416 4.416c-1.592 1.425-3.695 2.292-6 2.292-0.338 0-0.671-0.019-1-0.055 0.014-2.56 0.99-4.892 2.583-6.653zM10.955 0.045c2.206 0.209 4.203 1.134 5.756 2.54l-6.71 6.708-1.585-1.584c1.548-1.71 2.513-3.957 2.58-6.43l0.005-0.279c0-0.28-0.012-0.559-0.035-0.834zM9.947 0c0.034 0.33 0.054 0.662 0.054 1 0 2.305-0.867 4.408-2.293 6l-4.417-4.414c1.774-1.607 4.128-2.586 6.71-2.586z"></path>
</svg>