<svg xmlns="http://www.w3.org/2000/svg" fill="#fdfdfd" viewBox="0 0 20 20">
    <path d="M5.556 0v1.111h8.889v-1.111h1.111v1.111h1.667c0 0 0 0 0 0 1.47 0 2.673 1.142 2.771 2.587l0 0.009 0.006 0.182v13.333c0 1.534-1.244 2.778-2.778 2.778v0h-14.444c-1.534 0-2.778-1.244-2.778-2.778v0-13.333c0-1.534 1.244-2.778 2.778-2.778v0h1.667v-1.111h1.111zM4.444 2.222h-1.667c-0.919 0-1.667 0.748-1.667 1.667v13.333c0 0.919 0.748 1.667 1.667 1.667h14.444c0.919 0 1.667-0.748 1.667-1.667v-13.333c0-0.919-0.748-1.667-1.667-1.667h-1.667v1.111h-1.111v-1.111h-8.889v1.111h-1.111v-1.111zM17.222 16.667h-14.444v-11.111h14.444v11.111zM6.111 13.333h-2.222v2.222h2.222v-2.222zM9.444 13.333h-2.222v2.222h2.222v-2.222zM12.778 13.333h-2.222v2.222h2.222v-2.222zM16.111 13.333h-2.222v2.222h2.222v-2.222zM6.111 10h-2.222v2.222h2.222v-2.222zM9.444 10h-2.222v2.222h2.222v-2.222zM12.778 10h-2.222v2.222h2.222v-2.222zM16.111 10h-2.222v2.222h2.222v-2.222zM6.111 6.667h-2.222v2.222h2.222v-2.222zM9.444 6.667h-2.222v2.222h2.222v-2.222zM12.778 6.667h-2.222v2.222h2.222v-2.222zM16.111 6.667h-2.222v2.222h2.222v-2.222z"></path>
</svg>
