<svg xmlns="http://www.w3.org/2000/svg" fill="#aaa" viewBox="0 0 20 20">
    <path d="M17.071 2.929c3.905 3.905 3.905 10.237 0 14.142s-10.237 3.905-14.142 0-3.905-10.237 0-14.142 10.237-3.905 14.142 0zM16.364 3.636c-0.239-0.239-0.488-0.461-0.746-0.668l-12.65 12.65c0.206 0.259 0.429 0.507 0.668 0.746s0.489 0.462 0.746 0.668l12.65-12.65c-0.206-0.257-0.429-0.507-0.668-0.746zM3.636 3.636c-3.029 3.029-3.448 7.679-1.257 11.156l12.412-12.412c-3.478-2.191-8.127-1.772-11.156 1.257zM17.621 5.209l-12.413 12.413c3.478 2.191 8.127 1.772 11.156-1.257s3.447-7.678 1.257-11.156z"></path>
</svg>