<svg xmlns="http://www.w3.org/2000/svg" fill="#fdfdfd" viewBox="0 0 21 20">
  <path d="M10.662 20c5.523 0 10-4.477 10-10s-4.477-10-10-10-10 4.477-10 10 4.477 10 10 10zM10.662 1c4.971 0 9 4.030 9 9s-4.029 9-9 9c-4.97 0-9-4.030-9-9s4.030-9 9-9zM10.662 4.5c-0.276 0-0.5 0.224-0.5 0.5l-0.001 8.792-3.145-3.146-0.070-0.057c-0.195-0.135-0.464-0.116-0.638 0.057-0.195 0.196-0.195 0.512 0 0.708l4 4 0.070 0.057c0.073 0.051 0.156 0.080 0.241 0.087h0.086l0.084-0.014c0.083-0.022 0.161-0.065 0.227-0.13l4-4 0.057-0.070c0.135-0.195 0.116-0.464-0.057-0.638-0.174-0.173-0.443-0.192-0.638-0.057l-0.070 0.057-3.147 3.147 0.001-8.793c0-0.276-0.224-0.5-0.5-0.5z"></path>
</svg>