<svg xmlns="http://www.w3.org/2000/svg" fill="#ff6b00" viewBox="0 0 20 20">
    <path d="M10.247 0.558c0.108 0.054 0.197 0.142 0.25 0.25l2.662 5.37c0.081 0.163 0.237 0.277 0.418 0.303l5.947 0.86c0.304 0.044 0.514 0.326 0.47 0.63-0.017 0.12-0.075 0.233-0.163 0.318l-4.3 4.173c-0.132 0.128-0.192 0.312-0.16 0.493l1.015 5.895c0.052 0.303-0.15 0.59-0.453 0.642-0.12 0.020-0.244 0.001-0.352-0.055l-5.324-2.787c-0.16-0.084-0.353-0.084-0.515 0l-5.322 2.787c-0.272 0.142-0.608 0.037-0.75-0.235-0.056-0.108-0.076-0.231-0.055-0.352l1.015-5.895c0.032-0.18-0.029-0.365-0.16-0.493l-4.301-4.172c-0.22-0.214-0.226-0.565-0.012-0.785 0.085-0.088 0.197-0.145 0.319-0.163l5.947-0.86c0.18-0.026 0.337-0.14 0.418-0.303l2.661-5.371c0.137-0.274 0.47-0.386 0.745-0.25z"></path>
</svg>