<svg xmlns="http://www.w3.org/2000/svg" fill="#ff6b00" viewBox="0 0 20 20">
    <path
        d="M7.82 19.762l-0.113-0.026c-0.139-0.031-0.21-0.049-0.281-0.068l0.069 0.016 0.326 0.078c-0.451-0.101-0.826-0.211-1.191-0.342l0.069 0.022-0.068-0.024c-0.299-0.106-0.526-0.199-0.748-0.3l0.062 0.025-0.066-0.030c-0.986-0.452-1.833-1.016-2.579-1.691l0.009 0.008c-0.602-0.542-1.131-1.146-1.581-1.808l-0.022-0.034-0.052-0.082c-0.866-1.293-1.443-2.847-1.604-4.524l-0.003-0.040-0.002 0.001c-0.028-0.282-0.045-0.609-0.045-0.941 0-0.279 0.012-0.555 0.034-0.828l-0.002 0.036 0.012-0.122c0.132-1.437 0.551-2.751 1.199-3.92l-0.026 0.051 0.038-0.070c0.156-0.281 0.295-0.506 0.441-0.724l-0.023 0.037 0.063-0.092c0.235-0.347 0.49-0.676 0.764-0.986 0.908-1.023 2.007-1.854 3.246-2.439l0.061-0.026 0.22-0.098 0.012-0.005c0.093-0.040 0.187-0.080 0.282-0.117l-0.294 0.122c1.165-0.519 2.524-0.821 3.954-0.821 0.135 0 0.268 0.003 0.402 0.008l-0.019-0.001-0.364-0.007c0.777 0.001 1.534 0.088 2.261 0.254l-0.068-0.013c0.683 0.155 1.277 0.354 1.843 0.605l-0.063-0.025 0.22 0.098c1.3 0.611 2.399 1.442 3.297 2.456l0.009 0.011v-0.002c0.476 0.537 0.901 1.138 1.257 1.784l0.026 0.051c0.623 1.118 1.043 2.433 1.173 3.831l0.003 0.039 0.008 0.12c0.020 0.239 0.032 0.518 0.032 0.799 0 1.874-0.517 3.628-1.417 5.126l0.025-0.045h0.002c-0.083 0.142-0.17 0.281-0.26 0.418-0.020 0.026-0.037 0.053-0.056 0.080-0.532 0.786-1.142 1.464-1.834 2.048l-0.015 0.012c-0.671 0.569-1.435 1.060-2.26 1.441l-0.062 0.026-0.066 0.029c-0.225 0.1-0.453 0.192-0.686 0.275l-0.068 0.024c-0.298 0.11-0.673 0.22-1.057 0.308l-0.065 0.012c-0.655 0.152-1.407 0.239-2.179 0.239s-1.525-0.087-2.247-0.252l0.068 0.013zM13.076 1.54l-2.451 1.96c-0.17 0.137-0.388 0.219-0.625 0.219-0.193 0-0.373-0.054-0.525-0.149l0.004 0.002-0.104-0.073-2.45-1.96c-1.629 0.605-2.989 1.612-4.004 2.904l-0.015 0.019 1.107 2.934c0.041 0.105 0.065 0.226 0.065 0.353 0 0.303-0.135 0.575-0.348 0.758l-0.001 0.001-0.101 0.076-2.62 1.724c0.060 1.771 0.625 3.399 1.555 4.758l-0.020-0.031 3.133-0.146c0.014-0.001 0.030-0.001 0.047-0.001 0.414 0 0.769 0.251 0.921 0.61l0.002 0.007 0.040 0.12 0.83 3.026c0.743 0.221 1.596 0.348 2.478 0.348 0.002 0 0.005 0 0.007 0h-0c0.002 0 0.004 0 0.007 0 0.883 0 1.736-0.127 2.542-0.364l-0.064 0.016 0.83-3.026c0.112-0.402 0.459-0.698 0.88-0.733l0.004-0 0.126-0.002 3.133 0.146c0.91-1.328 1.474-2.956 1.534-4.712l0-0.015-2.619-1.724c-0.273-0.181-0.45-0.488-0.45-0.835 0-0.083 0.010-0.163 0.029-0.239l-0.001 0.007 0.037-0.12 1.107-2.935c-1.030-1.311-2.391-2.319-3.958-2.904l-0.062-0.020zM10.589 6.428l2.628 1.91c0.251 0.184 0.412 0.478 0.412 0.809 0 0.111-0.018 0.217-0.051 0.316l0.002-0.007-1.004 3.090c-0.134 0.404-0.509 0.691-0.951 0.691h-3.249c-0.442-0-0.817-0.287-0.949-0.684l-0.002-0.007-1.004-3.090c-0.031-0.092-0.049-0.199-0.049-0.309 0-0.331 0.161-0.625 0.409-0.807l0.003-0.002 2.628-1.91c0.163-0.119 0.367-0.191 0.588-0.191s0.425 0.072 0.591 0.193l-0.003-0.002z">
    </path>
</svg>