<svg xmlns="http://www.w3.org/2000/svg" width="20" height="20" viewBox="0 0 20 20">
    <g fill="none" fill-rule="evenodd">
        <g fill="#FDFDFD">
            <g>
                <path d="M4.5 10c.276 0 .5.224.5.5s-.224.5-.5.5h-4c-.276 0-.5-.224-.5-.5s.224-.5.5-.5h4zm-1-3.5c.276 0 .5.224.5.5s-.224.5-.5.5h-3C.224 7.5 0 7.276 0 7s.224-.5.5-.5h3zm1-3.5c.276 0 .5.224.5.5s-.224.5-.5.5h-4C.224 4 0 3.776 0 3.5S.224 3 .5 3h4zm2.107 6.849c-1.573-3.532.016-7.67 3.548-9.242 3.531-1.573 7.67.016 9.242 3.548 1.504 3.378.116 7.31-3.098 9.022l2.65 5.954c.113.253 0 .548-.253.66-.252.113-.548 0-.66-.253l-2.651-5.954c-3.423 1.243-7.274-.357-8.778-3.735zm8.835 2.634c3.027-1.348 4.389-4.894 3.04-7.922-1.347-3.027-4.894-4.388-7.92-3.04-3.028 1.347-4.39 4.894-3.042 7.921 1.348 3.027 4.895 4.389 7.922 3.041z" transform="translate(-285.000000, -15.000000) translate(285.000000, 15.000000)"/>
            </g>
        </g>
    </g>
</svg>
