<svg viewBox="0 0 10 10" fill="#DF2357" xmlns="http://www.w3.org/2000/svg">
  <path d="M5.48 7.858l6.662 6.661c-.65.309-1.376.481-2.142.481-2.761 0-5-2.239-5-5 0-.766.172-1.492.48-2.142zm1.51-1.85l7.003 7.002c-.278.368-.605.696-.972.974L6.016 6.98c.278-.367.606-.694.974-.972zM10 5c2.761 0 5 2.239 5 5 0 .76-.17 1.482-.474 2.128L7.872 5.474C8.518 5.17 9.24 5 10 5z" transform="translate(-436.000000, -428.000000) translate(190.000000, 150.000000) translate(231.000000, 229.000000) translate(10.000000, 44.000000) translate(10.000000, 10.000000) scale(1, -1) translate(-10.000000, -10.000000)"/>
</svg>