<svg viewBox="0 0 20 20" fill="#ff6b00" xmlns="http://www.w3.org/2000/svg">
  <path d="M13.843 6.031c-.502-.188-.768-.734-.605-1.242l1.2-3.338c.06-.126.061-.272.005-.4S14.28.824 14.146.78c-.262-.094-.55.04-.646.3l-1.21 3.328c-.19.52-.768.79-1.292.601-.251-.094-.53-.084-.774.027-.245.11-.434.314-.527.564L5.56 16.905c-.189.52.082 1.095.606 1.283L9.01 19.19c.523.188 1.101-.081 1.291-.601L14.44 7.314c.19-.517-.076-1.09-.596-1.283z" transform="translate(-431.000000, -443.000000) translate(190.000000, 150.000000) translate(231.000000, 229.000000) translate(10.000000, 64.000000)"/>
</svg>